<?xml version="1.0" standalone="no"?>
<!DOCTYPE svg PUBLIC "-//W3C//DTD SVG 20010904//EN"
 "http://www.w3.org/TR/2001/REC-SVG-20010904/DTD/svg10.dtd">
<svg version="1.0" xmlns="http://www.w3.org/2000/svg"
 width="200.000000pt" height="200.000000pt" viewBox="0 0 200.000000 200.000000"
 preserveAspectRatio="xMidYMid meet">

<g transform="translate(0.000000,200.000000) scale(0.100000,-0.100000)"
fill="#000000" stroke="none">
<path d="M1142 1576 c-71 -36 -132 -63 -135 -60 -2 2 -21 -3 -41 -11 -34 -14
-45 -14 -142 5 -97 19 -179 26 -144 13 8 -3 53 -23 99 -45 l84 -40 -29 -17
c-16 -9 -55 -31 -87 -47 l-59 -29 -60 33 c-75 41 -97 34 -68 -21 11 -20 20
-39 20 -41 0 -3 -16 -2 -35 1 -41 7 -49 -11 -9 -21 17 -5 24 -12 20 -21 -4
-11 2 -15 25 -15 17 0 39 -5 49 -10 14 -8 21 -6 28 6 5 10 44 27 88 40 44 12
113 38 154 58 66 31 76 33 90 20 27 -26 63 -54 69 -54 20 1 33 21 29 43 -4 22
0 28 23 36 31 11 39 38 13 48 -11 4 27 28 113 72 96 50 129 71 131 87 3 18 -4
22 -35 27 -21 4 -43 7 -49 7 -6 0 -70 -29 -142 -64z"/>
<path d="M385 1197 c-167 -76 -286 -170 -334 -265 -123 -240 -3 -462 285 -526
39 -8 147 -21 240 -27 309 -21 690 10 1004 82 109 25 332 91 326 96 -2 3 -53
-4 -113 -16 -395 -74 -820 -104 -1194 -82 -280 16 -390 48 -468 136 -44 51
-61 98 -61 171 0 158 105 294 321 416 97 55 94 61 -6 15z"/>
</g>
</svg>
