<?xml version="1.0" standalone="no"?>
<!DOCTYPE svg PUBLIC "-//W3C//DTD SVG 20010904//EN"
 "http://www.w3.org/TR/2001/REC-SVG-20010904/DTD/svg10.dtd">
<svg version="1.0" xmlns="http://www.w3.org/2000/svg"
 width="500.000000pt" height="500.000000pt" viewBox="0 0 500.000000 500.000000"
 preserveAspectRatio="xMidYMid meet">

<g transform="translate(0.000000,500.000000) scale(0.100000,-0.100000)"
fill="#000000" stroke="none">
<path d="M2220 4981 c-194 -27 -250 -38 -390 -76 -907 -248 -1614 -1017 -1780
-1935 -65 -365 -65 -575 1 -935 86 -469 313 -908 654 -1263 375 -391 871 -647
1420 -734 200 -31 528 -31 737 0 627 94 1173 407 1576 902 387 475 585 1100
543 1713 -34 513 -196 954 -496 1355 -101 135 -328 363 -467 470 -426 327
-938 506 -1483 518 -138 2 -212 -1 -315 -15z m515 -1431 c3 -5 1 -10 -4 -10
-6 0 -11 5 -11 10 0 6 2 10 4 10 3 0 8 -4 11 -10z m15 -51 c13 -23 13 -29 -1
-29 -5 0 -7 5 -3 12 5 8 2 9 -10 5 -10 -4 -21 -7 -26 -7 -4 0 -10 -9 -13 -20
-3 -11 0 -20 6 -20 7 0 5 -5 -3 -10 -12 -8 -12 -10 5 -10 27 0 93 -69 104
-108 10 -35 -15 -99 -38 -94 -7 1 -10 -2 -6 -8 6 -9 -62 -46 -70 -38 -6 5 19
34 40 47 15 9 16 11 2 7 -16 -5 -16 -4 -1 19 23 36 0 118 -49 172 -25 28 -29
63 -10 84 19 22 61 21 73 -2z m-172 -107 c2 -7 10 -12 17 -12 23 0 63 -22 69
-36 5 -12 2 -12 -17 0 -16 10 -38 12 -82 6 -33 -4 -67 -5 -75 -3 -11 4 -12 3
-2 -4 9 -7 6 -13 -15 -22 -46 -21 -92 -22 -126 -4 -18 10 -33 18 -33 18 -1 0
-5 11 -9 24 -5 17 -4 22 6 19 7 -2 35 4 63 14 59 21 197 21 204 0z m-284 -28
c5 -14 4 -15 -9 -4 -17 14 -19 20 -6 20 5 0 12 -7 15 -16z m344 -69 c3 -3 -8
-5 -24 -5 -16 0 -42 -7 -58 -15 -15 -8 -33 -12 -40 -8 -6 3 -8 2 -3 -2 10 -11
-23 -46 -36 -38 -5 3 -7 1 -4 -4 7 -11 -36 -75 -74 -110 -33 -30 -63 -39 -133
-42 -45 -2 -57 1 -54 11 3 7 13 13 24 13 10 0 19 7 19 15 1 8 7 14 15 12 8 -2
12 0 8 4 -11 10 12 35 26 27 6 -3 8 -3 4 2 -10 10 11 37 23 29 5 -3 9 1 9 9 0
8 10 22 22 33 14 12 18 14 13 4 -5 -8 3 -3 18 13 25 26 37 31 66 28 7 -2 10 2
7 8 -12 19 153 35 172 16z m-13 -54 c-21 -12 -32 -15 -37 -7 -5 7 -8 4 -8 -6
0 -25 -37 -83 -42 -66 -3 7 -6 -34 -7 -91 -1 -57 -7 -113 -14 -125 -6 -12 -12
-25 -12 -31 -1 -5 -6 -9 -12 -8 -6 1 -10 -5 -9 -15 0 -9 -5 -16 -12 -14 -8 1
-11 -2 -8 -7 3 -5 0 -14 -8 -20 -11 -9 -17 -8 -29 3 -13 14 -16 14 -21 0 -3
-8 -2 -12 4 -9 6 3 10 2 10 -3 0 -12 -49 -34 -60 -27 -5 3 -3 20 5 38 7 17 19
67 25 110 9 54 16 74 22 65 7 -9 8 -7 3 7 -6 18 18 76 50 119 13 17 17 17 32
5 16 -12 17 -12 6 2 -11 13 -8 20 15 40 34 31 87 56 122 58 8 1 2 -7 -15 -18z
m35 -26 c-7 -8 -9 -15 -5 -15 4 0 2 -7 -5 -15 -7 -8 -10 -15 -7 -15 3 0 0 -17
-7 -37 -10 -31 -11 -46 0 -83 18 -66 37 -113 52 -128 16 -18 43 -69 40 -79 0
-4 2 -20 6 -35 9 -30 -11 -128 -25 -128 -5 0 -8 -5 -7 -12 2 -7 -2 -12 -9 -13
-6 0 -15 -4 -20 -9 -5 -5 -3 -6 5 -2 16 10 15 -9 -2 -23 -11 -9 -17 2 -35 55
-12 36 -18 70 -15 76 4 6 2 8 -3 5 -11 -7 -30 31 -36 68 -1 11 -6 26 -11 34
-5 7 -11 43 -13 80 -6 87 23 195 68 251 18 22 34 40 37 40 2 0 -1 -7 -8 -15z
m-1959 -597 c0 -10 2 -10 5 -1 3 7 11 10 19 7 10 -4 11 -12 5 -27 -12 -29 -41
-144 -38 -154 1 -4 -4 -19 -10 -33 -23 -52 -54 -170 -50 -188 4 -16 -1 -19
-41 -20 -32 -2 -42 1 -31 7 8 5 18 7 22 5 4 -3 5 2 2 10 -3 9 -2 16 4 16 5 0
12 12 15 28 21 106 50 201 59 195 6 -3 8 -1 4 5 -3 6 1 36 9 68 8 32 12 66 9
76 -3 10 -1 18 5 18 6 0 11 -6 12 -12z m284 -7 c-11 -3 -35 -14 -52 -24 -27
-14 -31 -15 -27 -2 5 11 -1 15 -22 15 -23 0 -26 2 -14 10 8 5 42 9 75 9 34 -1
51 -4 40 -8z m-415 -25 c0 -2 -7 -7 -16 -10 -8 -3 -12 -2 -9 4 6 10 25 14 25
6z m-42 -43 c-1 -10 2 -28 6 -39 4 -15 2 -23 -8 -27 -15 -6 -18 14 -10 61 5
26 13 30 12 5z m322 -17 c0 -2 -8 -10 -17 -17 -16 -13 -17 -12 -4 4 13 16 21
21 21 13z m720 -38 c0 -4 -7 -4 -17 -1 -9 4 -14 2 -11 -3 4 -5 -13 -17 -35
-26 l-42 -17 44 40 c33 29 46 36 53 27 4 -7 8 -16 8 -20z m2271 10 c-1 -5 -4
-8 -7 -7 -4 0 -10 -3 -13 -8 -5 -7 -28 -20 -75 -41 -5 -3 9 12 30 32 35 33 66
44 65 24z m-3031 -2 c0 -2 -8 -10 -17 -17 -16 -13 -17 -12 -4 4 13 16 21 21
21 13z m443 -2 c-7 -3 -9 -12 -6 -21 5 -12 1 -14 -14 -9 -11 4 -37 7 -57 8
-37 1 -38 12 -1 21 26 6 93 7 78 1z m190 -27 c-3 -12 -10 -28 -16 -34 -6 -9
-6 -18 2 -27 9 -11 8 -21 -7 -45 -10 -17 -21 -29 -23 -27 -2 2 -5 -18 -6 -44
-1 -27 -7 -58 -13 -69 -12 -24 -40 -28 -40 -6 0 8 5 15 11 15 5 0 8 4 5 9 -3
5 1 27 8 49 8 22 18 61 21 86 4 25 11 44 15 41 4 -2 5 7 2 20 -2 14 -9 28 -15
32 -10 6 43 33 55 27 3 -2 4 -14 1 -27z m212 -33 c-8 -21 -14 -33 -15 -25 0 8
-3 11 -6 8 -4 -4 -1 -14 6 -23 11 -13 11 -17 1 -24 -8 -4 -11 -12 -8 -17 3 -5
0 -30 -7 -55 -13 -40 -12 -45 4 -55 13 -9 24 -7 49 8 17 10 31 17 31 14 0 -10
-77 -54 -100 -57 -22 -3 -25 1 -26 32 -1 19 10 73 24 119 19 64 23 88 14 101
-9 14 -7 19 11 27 31 15 39 -5 22 -53z m360 15 c-4 -46 -2 -49 12 -37 15 12
15 11 3 -9 -8 -12 -17 -20 -20 -18 -4 2 -14 -31 -24 -73 -21 -92 -27 -105 -48
-108 -14 -2 -15 2 -7 23 5 14 14 46 20 72 6 25 13 55 16 66 3 11 6 27 7 35 1
9 5 21 10 28 4 6 3 20 -3 29 -7 14 -5 21 12 30 12 7 23 12 24 13 1 0 0 -23 -2
-51z m482 37 c-4 -10 -1 -13 7 -10 15 6 13 -31 -5 -98 -13 -48 -20 -47 -10 2
4 19 3 47 -3 61 -9 25 -4 59 10 59 3 0 4 -7 1 -14z m298 -3 c-2 -10 -4 -29 -4
-42 -1 -21 -3 -22 -18 -10 -15 13 -15 12 -4 -9 6 -12 9 -26 6 -31 -6 -11 -25
-102 -30 -143 -2 -24 0 -26 22 -17 39 14 16 -11 -24 -28 -43 -17 -50 -12 -33
24 19 40 20 52 4 46 -10 -4 -12 0 -8 11 3 9 11 16 16 16 6 0 8 6 5 14 -7 18
17 99 27 89 4 -4 4 0 0 10 -3 9 -1 24 5 31 10 12 6 15 -19 21 -16 4 -30 11
-30 16 0 6 4 8 9 4 5 -3 12 -1 16 5 3 5 19 10 35 10 21 0 27 -4 25 -17z m442
-5 c6 -5 9 -17 6 -25 -5 -14 -9 -13 -23 5 -10 12 -20 18 -24 15 -3 -4 -6 -1
-6 5 0 7 -10 8 -32 1 -18 -5 -28 -5 -22 0 20 20 75 19 101 -1z m282 5 c-8 -9
-9 -14 -3 -11 5 4 0 -25 -13 -64 -13 -39 -23 -83 -23 -98 0 -15 -3 -30 -7 -34
-10 -10 -11 -46 -1 -40 4 3 8 0 8 -6 0 -7 7 -9 18 -5 12 4 14 3 6 -5 -13 -13
-71 -30 -78 -22 -3 3 0 15 8 27 16 25 6 52 -15 40 -8 -5 -7 0 3 11 17 19 41
83 53 142 4 17 11 32 16 32 5 0 9 3 9 8 0 12 -76 13 -106 2 -44 -17 -18 3 29
22 23 9 57 17 76 17 30 1 32 -1 20 -16z m495 1 c9 -8 16 -19 16 -24 0 -24 -21
-58 -50 -79 l-32 -23 22 30 c13 18 23 44 22 62 0 19 3 28 10 24 7 -4 8 -2 4 4
-4 6 -13 9 -21 5 -8 -3 -15 0 -15 6 0 16 26 13 44 -5z m250 6 c31 -12 35 -47
8 -81 -15 -17 -21 -19 -27 -9 -6 9 -4 11 5 5 10 -6 12 -4 7 7 -3 9 0 21 6 28
9 10 9 11 -2 5 -11 -6 -13 -3 -9 13 4 12 1 20 -4 19 -6 -1 -13 4 -15 11 -6 15
-2 15 31 2z m261 -6 c26 -12 32 -37 8 -32 -10 2 -18 10 -18 18 0 10 -8 14 -24
12 -13 -2 -21 1 -17 6 7 11 20 10 51 -4z m-2699 -16 c-2 -13 -16 -63 -30 -113
-30 -104 -32 -123 -10 -132 14 -5 13 -8 -7 -18 -35 -20 -48 0 -38 60 13 82 44
187 52 178 5 -4 5 1 1 11 -4 11 -2 21 7 27 23 14 30 10 25 -13z m352 5 c1 -25
-31 -152 -38 -148 -3 1 -6 -11 -7 -29 -2 -17 -4 -40 -5 -50 -4 -30 16 -29 53
1 28 22 30 23 14 4 -23 -27 -90 -63 -99 -54 -13 13 -5 72 19 143 32 93 32 120
3 120 -21 0 -21 0 -2 15 27 20 60 19 62 -2z m187 -33 c14 -27 22 -50 19 -50
-4 0 -1 -6 5 -14 9 -11 19 -78 21 -145 0 -7 6 -11 15 -7 12 4 11 -2 -5 -32
-29 -56 -43 -73 -35 -42 19 73 -24 256 -72 308 -9 10 -18 10 -33 2 -11 -6 -20
-8 -20 -6 0 8 53 35 67 36 7 0 24 -22 38 -50z m1346 23 c-5 -16 -14 -27 -20
-25 -7 1 -5 -8 5 -24 15 -22 15 -27 3 -35 -8 -5 -10 -9 -5 -9 5 0 4 -6 -2 -12
-11 -15 -27 -77 -23 -95 1 -7 -3 -13 -8 -13 -6 0 -7 -7 -4 -17 4 -11 3 -14 -5
-9 -8 5 -10 2 -6 -8 6 -16 -20 -24 -29 -8 -3 4 8 50 24 102 15 52 26 96 24 98
-2 2 0 15 5 28 6 15 6 26 -1 30 -14 8 8 24 33 24 13 0 15 -5 9 -27z m-1021 14
c0 -2 -15 -13 -32 -26 l-33 -22 28 25 c26 24 37 31 37 23z m-1561 -10 c-2 -1
-15 -11 -29 -22 l-25 -20 19 23 c11 12 24 22 29 22 6 0 8 -1 6 -3z m1988 -17
c-3 -11 -1 -23 5 -26 5 -3 7 -13 4 -21 -3 -8 -1 -11 4 -8 14 9 12 -8 -2 -25
-11 -12 -10 -12 3 -2 13 9 21 6 44 -18 15 -16 29 -41 31 -56 3 -28 -18 -69
-29 -57 -4 3 -1 13 6 21 10 13 9 14 -2 7 -11 -6 -13 -4 -8 8 3 9 2 19 -4 22
-5 4 -6 11 -3 17 4 6 2 8 -3 5 -17 -10 -61 64 -61 102 -1 35 4 51 15 51 3 0 3
-9 0 -20z m780 -17 c-14 -23 -23 -53 -23 -75 1 -41 -3 -45 -23 -25 -10 10 -11
7 -2 -13 5 -14 12 -42 16 -62 5 -34 8 -36 38 -32 17 2 45 13 62 26 l30 21 -20
-22 c-23 -26 -46 -40 -87 -51 -20 -6 -26 -5 -22 2 5 7 1 9 -9 5 -21 -8 -33 10
-36 56 -3 42 15 107 30 107 6 0 7 5 4 10 -6 9 49 90 61 90 2 0 -6 -17 -19 -37z
m536 26 c-6 -6 -9 -17 -7 -24 3 -7 1 -16 -5 -20 -6 -3 -11 -12 -11 -18 0 -7 4
-6 10 3 7 10 13 11 18 4 4 -5 20 -27 36 -48 29 -36 43 -96 23 -96 -5 0 -7 -6
-4 -14 3 -8 -4 -21 -18 -30 -31 -20 -41 -21 -21 -1 8 8 18 15 23 15 4 0 8 14
7 31 -1 21 -12 43 -37 70 -20 21 -39 50 -43 64 -7 28 12 75 30 75 6 0 6 -4 -1
-11z m-3686 -11 c1 -7 19 -57 42 -111 23 -55 39 -103 36 -107 -3 -5 -1 -11 5
-15 6 -4 8 -10 6 -14 -3 -4 16 -31 41 -60 44 -50 45 -52 16 -38 -41 22 -86 76
-78 96 3 8 3 12 -1 8 -10 -10 -36 52 -27 66 3 6 1 7 -5 3 -11 -7 -16 7 -15 42
1 6 -3 12 -7 12 -9 0 -24 49 -21 69 1 7 -2 10 -7 7 -5 -3 -15 1 -21 8 -10 11
-7 18 11 30 27 19 25 19 25 4z m486 6 c13 -5 13 -13 -4 -61 -10 -31 -19 -66
-19 -79 0 -13 -4 -25 -8 -28 -10 -6 -9 -36 2 -54 6 -10 13 -10 33 3 14 10 22
12 19 6 -12 -18 -66 -42 -78 -35 -7 4 -8 3 -4 -4 4 -7 3 -12 -3 -12 -17 0 -22
18 -8 32 12 11 12 48 0 48 -3 0 -25 -16 -49 -36 -24 -20 -44 -33 -44 -29 0 4
-7 1 -17 -6 -21 -18 -20 -18 -39 9 -21 30 -12 116 16 154 11 15 20 32 20 38 0
6 4 8 10 5 6 -4 4 -17 -5 -35 -24 -46 -17 -154 9 -151 11 1 61 30 82 49 13 11
30 51 45 105 13 48 25 87 26 87 1 0 8 -3 16 -6z m2927 -13 c0 -5 -7 -16 -15
-25 -9 -8 -15 -19 -14 -23 1 -4 1 -10 0 -13 -6 -16 -11 -108 -6 -126 8 -35 49
-36 98 -2 l42 29 -39 -35 c-21 -19 -54 -40 -73 -47 -47 -15 -73 8 -73 64 0 45
19 107 33 107 4 0 5 5 2 10 -4 6 4 23 17 40 26 32 28 34 28 21z m-1550 -36
c-7 -8 -10 -15 -6 -15 3 0 1 -12 -4 -26 -31 -81 -12 -152 35 -134 38 14 30 3
-14 -19 -34 -18 -40 -18 -59 -5 -18 12 -21 23 -17 59 4 49 54 155 72 155 3 0
0 -7 -7 -15z m723 -17 c-25 -48 -33 -145 -13 -154 8 -4 19 -6 23 -5 5 1 7 -4
4 -11 -2 -7 -11 -12 -20 -12 -9 1 -14 -2 -11 -7 10 -16 -6 -9 -26 11 -21 21
-27 74 -10 85 5 3 6 13 3 22 -5 12 -3 14 7 8 10 -6 12 -4 7 10 -5 11 1 29 18
51 33 43 41 43 18 2z m907 -2 c0 -2 -8 -10 -17 -17 -16 -13 -17 -12 -4 4 13
16 21 21 21 13z m-1763 -78 c-3 -8 -6 -5 -6 6 -1 11 2 17 5 13 3 -3 4 -12 1
-19z m-14 -43 c-3 -9 -8 -14 -10 -11 -3 3 -2 9 2 15 9 16 15 13 8 -4z m587
-23 c0 -8 -5 -10 -12 -6 -9 5 -10 4 -3 -4 17 -17 79 -30 104 -20 13 4 26 7 28
4 2 -2 -12 -9 -31 -16 -28 -9 -43 -9 -70 1 -39 14 -50 31 -40 62 5 16 8 17 15
6 5 -8 9 -20 9 -27z m1305 9 c6 -34 14 -41 46 -41 16 0 29 -5 29 -11 0 -15
-66 -2 -90 18 -23 20 -25 34 -8 51 14 14 17 12 23 -17z m-965 -16 c-7 -8 -17
-15 -23 -15 -6 0 -2 7 9 15 25 19 30 19 14 0z m-2360 -84 c0 -19 -43 -61 -63
-61 -18 1 -15 4 11 15 18 8 31 19 27 25 -3 5 -3 15 0 20 8 12 25 13 25 1z
m1310 -71 c0 -5 -19 -24 -42 -40 -33 -24 -49 -29 -72 -25 -23 5 -27 4 -16 -4
13 -9 13 -11 -1 -11 -21 0 -43 26 -34 40 4 6 16 8 27 4 48 -15 78 -10 105 17
33 32 33 32 33 19z m-580 -302 l0 -41 25 23 c31 29 42 21 16 -11 -19 -23 -19
-24 6 -56 21 -27 22 -33 9 -33 -9 0 -21 9 -28 20 -7 11 -16 20 -20 20 -5 0 -8
-9 -8 -20 0 -11 -4 -20 -10 -20 -6 0 -10 33 -10 80 0 47 4 80 10 80 6 0 10
-19 10 -42z m1950 7 c0 -35 16 -47 26 -20 4 8 13 15 21 15 11 0 10 -6 -6 -29
l-21 -29 26 -31 c30 -36 13 -43 -23 -9 l-23 21 0 -21 c0 -12 -4 -22 -10 -22
-6 0 -10 33 -10 80 0 47 4 80 10 80 6 0 10 -16 10 -35z m-2464 -46 l12 -34 11
28 c6 16 11 33 11 38 0 25 25 -1 35 -36 l10 -39 13 42 c11 35 17 43 34 40 14
-2 25 -15 33 -37 12 -37 18 -34 29 12 9 37 22 34 37 -10 l13 -38 14 38 c19 47
50 51 59 7 8 -43 21 -46 31 -9 11 43 29 47 37 10 9 -42 22 -47 30 -11 6 29 21
47 31 37 7 -7 -36 -117 -46 -117 -5 0 -14 17 -21 38 l-12 37 -12 -34 c-16 -50
-30 -48 -45 4 -7 25 -16 45 -20 45 -4 0 -13 -20 -20 -45 -15 -54 -35 -58 -44
-10 -8 41 -21 38 -31 -6 -9 -41 -25 -32 -46 27 l-17 49 -11 -28 c-6 -15 -14
-39 -17 -52 -9 -34 -30 -31 -37 5 -8 39 -24 38 -32 -1 -12 -51 -27 -33 -60 70
-12 38 17 20 31 -20z m714 -21 l0 -59 -57 3 c-49 3 -59 6 -69 27 -13 26 -3 69
19 83 7 4 33 7 60 6 l47 -1 0 -59z m60 53 c0 -6 -4 -13 -10 -16 -5 -3 -10 -26
-10 -51 0 -32 -4 -44 -15 -44 -12 0 -15 13 -15 60 0 57 1 60 25 60 14 0 25 -4
25 -9z m30 -25 c0 -47 9 -66 30 -66 24 0 33 15 34 58 1 19 7 37 14 40 9 3 12
-13 12 -57 l0 -61 -43 0 c-24 0 -48 5 -55 12 -14 14 -16 108 -2 108 6 0 10
-15 10 -34z m198 22 c14 -14 16 -108 2 -108 -5 0 -10 20 -10 44 0 36 -4 46
-20 51 -31 10 -40 -2 -40 -51 0 -24 -4 -44 -10 -44 -5 0 -10 10 -10 23 0 12
-3 39 -6 60 l-7 37 45 0 c24 0 49 -5 56 -12z m65 -30 c10 -28 17 -38 21 -28 3
8 10 27 15 43 6 15 17 27 26 27 16 0 17 4 -28 -105 -27 -64 -51 -86 -41 -38 3
17 -2 49 -15 81 -25 63 -25 62 -7 62 8 0 21 -19 29 -42z m197 -20 l0 -58 -49
0 c-40 0 -53 4 -65 22 -37 52 -2 99 69 96 l45 -1 0 -59z m87 47 c8 -22 -4 -30
-21 -16 -9 8 -16 8 -20 2 -4 -5 6 -16 21 -23 26 -13 29 -12 43 17 14 27 20 30
68 31 l52 2 0 -59 0 -59 -49 0 c-31 0 -53 5 -61 15 -12 14 -15 14 -30 0 -23
-21 -57 -19 -70 5 -9 16 -8 20 5 20 8 0 15 -4 15 -10 0 -5 7 -10 15 -10 24 0
17 26 -10 38 -23 11 -33 40 -18 55 12 13 54 7 60 -8z m213 6 c0 -5 -7 -14 -15
-21 -9 -7 -15 -29 -15 -51 0 -22 -4 -39 -10 -39 -6 0 -10 27 -10 60 0 57 1 60
25 60 14 0 25 -4 25 -9z m117 -14 l18 -24 18 24 c22 28 71 31 99 6 32 -29 22
-43 -30 -43 -54 0 -67 -7 -51 -27 14 -16 51 -17 67 -1 17 17 28 2 12 -17 -26
-32 -110 -8 -110 32 0 9 -16 13 -56 13 -47 0 -55 -3 -52 -17 4 -21 45 -30 61
-14 6 6 18 11 26 11 11 0 10 -4 -4 -20 -37 -41 -115 -15 -115 38 0 59 81 86
117 39z m232 -2 c3 -17 1 -18 -13 -6 -13 11 -20 11 -28 3 -8 -8 -5 -14 14 -21
32 -12 41 -26 33 -51 -9 -27 -60 -27 -75 0 -9 16 -8 20 5 20 8 0 15 -4 15 -10
0 -5 7 -10 15 -10 24 0 17 26 -10 38 -27 13 -32 31 -13 50 18 18 52 10 57 -13z
m172 15 c10 -6 19 -17 19 -26 0 -12 -3 -12 -25 2 -39 26 -84 -1 -69 -41 8 -21
48 -29 73 -15 17 8 21 8 21 -4 0 -29 -72 -36 -102 -9 -10 9 -18 27 -18 41 0
51 52 77 101 52z m149 -12 c38 -41 13 -98 -45 -98 -40 0 -65 22 -65 57 0 59
69 84 110 41z m106 -22 c5 -76 56 -74 62 3 5 63 22 49 22 -19 l0 -60 -45 0
c-52 0 -65 16 -65 80 0 53 22 49 26 -4z m-1876 -61 c0 -8 -4 -15 -10 -15 -5 0
-10 7 -10 15 0 8 5 15 10 15 6 0 10 -7 10 -15z m1486 -12 c-10 -10 -19 5 -10
18 6 11 8 11 12 0 2 -7 1 -15 -2 -18z m334 12 c0 -8 -4 -15 -10 -15 -5 0 -10
7 -10 15 0 8 5 15 10 15 6 0 10 -7 10 -15z"/>
<path d="M2425 3229 c-4 -6 -5 -12 -2 -15 2 -3 7 2 10 11 7 17 1 20 -8 4z"/>
<path d="M2389 3213 c-13 -16 -12 -17 4 -4 16 13 21 21 13 21 -2 0 -10 -8 -17
-17z"/>
<path d="M3220 2470 c0 -5 5 -10 11 -10 5 0 7 5 4 10 -3 6 -8 10 -11 10 -2 0
-4 -4 -4 -10z"/>
<path d="M2150 2449 c0 -5 5 -7 10 -4 6 3 10 8 10 11 0 2 -4 4 -10 4 -5 0 -10
-5 -10 -11z"/>
<path d="M4138 2213 c6 -2 18 -2 25 0 6 3 1 5 -13 5 -14 0 -19 -2 -12 -5z"/>
<path d="M1868 1749 c-22 -12 -23 -42 -3 -59 32 -26 81 13 59 48 -14 21 -33
25 -56 11z"/>
<path d="M2416 1739 c-18 -27 -11 -47 20 -55 46 -12 75 44 35 66 -28 15 -38
13 -55 -11z"/>
<path d="M2646 1739 c-18 -27 -11 -47 20 -55 46 -12 75 44 35 66 -28 15 -38
13 -55 -11z"/>
<path d="M2850 1750 c-11 -7 -4 -10 25 -10 29 0 36 3 25 10 -8 5 -19 10 -25
10 -5 0 -17 -5 -25 -10z"/>
<path d="M2985 1750 c-4 -6 9 -10 32 -10 28 0 34 3 23 10 -20 13 -47 13 -55 0z"/>
<path d="M3408 1749 c-40 -23 -3 -78 42 -64 22 7 27 44 8 63 -14 14 -27 15
-50 1z"/>
</g>
</svg>
