<?xml version="1.0" standalone="no"?>
<!DOCTYPE svg PUBLIC "-//W3C//DTD SVG 20010904//EN"
 "http://www.w3.org/TR/2001/REC-SVG-20010904/DTD/svg10.dtd">
<svg version="1.0" xmlns="http://www.w3.org/2000/svg"
 width="500.000000pt" height="500.000000pt" viewBox="0 0 500.000000 500.000000"
 preserveAspectRatio="xMidYMid meet">

<g transform="translate(0.000000,500.000000) scale(0.100000,-0.100000)"
fill="#000000" stroke="none">
<path d="M1960 4157 c-91 -38 -145 -71 -148 -92 -1 -11 -5 -30 -8 -42 l-4 -23
-566 0 c-449 0 -565 -3 -561 -12 3 -7 97 -167 209 -355 l205 -341 6 -99 c7
-108 24 -169 63 -220 25 -33 28 -34 87 -31 l61 3 73 -129 c41 -71 70 -133 66
-137 -5 -3 -100 -17 -213 -29 -113 -12 -207 -24 -209 -26 -2 -2 123 -4 278 -4
l283 0 -29 53 c-16 28 -57 103 -92 165 -35 62 -61 115 -59 118 3 3 44 9 91 14
97 10 167 37 213 81 36 35 40 32 76 -51 14 -30 43 -77 66 -103 45 -52 45 -51
42 -175 l-2 -83 44 3 43 3 12 61 c14 73 27 107 83 234 37 81 44 109 51 195 17
192 40 250 140 336 34 29 68 68 75 86 20 47 17 106 -6 136 -24 30 -25 55 -5
104 8 19 15 64 15 98 0 110 -47 205 -127 256 -41 26 -56 29 -122 29 -56 0 -91
-7 -131 -23z m-165 -292 c3 -30 3 -80 0 -110 -7 -52 -6 -55 19 -65 14 -5 31
-22 37 -37 6 -16 15 -37 20 -48 5 -11 13 -32 19 -47 10 -30 22 -33 82 -19 30
7 40 5 53 -9 15 -17 15 -19 -2 -28 -45 -22 -131 -34 -184 -25 -76 13 -128 -1
-205 -53 -37 -24 -78 -44 -93 -44 -56 -1 -144 -59 -187 -125 -20 -30 -29 -26
-38 16 -3 18 -24 64 -46 102 -28 47 -44 92 -52 139 -15 84 -7 102 45 104 20 0
45 8 54 17 10 8 35 18 55 22 53 10 61 24 46 74 -15 47 -61 97 -98 106 -52 12
-230 -118 -246 -179 -4 -16 -1 -65 6 -108 7 -43 10 -81 7 -84 -2 -3 -57 84
-122 193 -65 109 -126 213 -137 231 l-20 32 490 0 490 0 7 -55z"/>
<path d="M2712 4075 c-30 -8 -61 -19 -70 -24 -9 -5 -39 -7 -67 -4 -78 8 -135
-20 -166 -83 -22 -46 -24 -63 -29 -259 -3 -115 -9 -216 -13 -222 -20 -32 54
-2 109 43 58 47 78 102 72 199 -3 41 -4 75 -2 75 2 0 10 -15 19 -33 8 -18 33
-54 55 -81 45 -55 44 -48 29 -115 -15 -69 -46 -94 -140 -110 -127 -22 -169
-40 -220 -91 -57 -57 -75 -113 -82 -252 -4 -89 -8 -104 -45 -180 -32 -64 -92
-256 -92 -292 0 -3 49 -6 109 -6 l109 0 7 68 c4 49 17 90 47 154 23 49 45 85
48 80 19 -21 50 -168 50 -231 l0 -71 287 2 288 3 12 66 c6 37 23 82 37 103 38
56 49 101 42 165 -20 160 -21 148 8 166 33 22 86 15 186 -26 50 -20 106 -33
174 -41 56 -6 102 -12 104 -13 1 -1 -51 -96 -117 -211 l-120 -209 145 -3 c79
-1 210 -1 292 0 l147 3 -219 32 c-120 18 -221 34 -223 37 -9 8 188 346 207
356 11 6 26 33 35 62 8 28 32 79 54 112 21 34 96 156 166 271 70 116 153 251
183 300 30 50 68 111 83 138 l28 47 -610 0 -611 0 -32 27 c-17 14 -45 32 -62
39 -51 21 -153 26 -212 9z m1364 -192 c-28 -43 -268 -434 -329 -535 -23 -38
-44 -68 -47 -68 -3 0 -16 33 -28 73 -34 109 -112 304 -136 339 -24 37 -46 44
-159 53 -82 7 -84 7 -100 -19 -10 -14 -20 -45 -23 -68 -5 -37 -2 -47 20 -70
25 -28 69 -37 81 -18 3 6 24 10 45 10 21 0 42 5 45 10 15 24 35 7 51 -42 15
-47 29 -258 17 -258 -2 0 -17 7 -33 15 -16 8 -64 19 -109 24 -78 8 -118 26
-151 66 -30 36 -96 55 -189 55 -119 0 -141 9 -141 55 l0 36 93 -3 92 -3 3 30
c2 17 8 34 13 40 5 5 9 26 9 46 0 20 7 42 15 49 21 17 19 23 -15 60 -19 21
-30 43 -30 61 0 16 -7 45 -14 64 l-15 35 530 0 529 0 -24 -37z"/>
<path d="M906 2478 c-15 -40 -36 -95 -46 -123 -10 -27 -32 -87 -49 -132 -17
-45 -31 -87 -31 -93 0 -5 18 -10 40 -10 39 0 42 2 60 45 l20 46 87 -3 88 -3
15 -42 c14 -42 16 -43 57 -43 24 0 43 4 43 10 0 5 -34 102 -76 215 l-76 205
-53 0 -52 0 -27 -72z m113 -111 l30 -87 -64 0 -64 0 31 90 c17 49 33 88 35 87
2 -2 16 -43 32 -90z"/>
<path d="M1268 2544 c-5 -4 -8 -101 -8 -216 l0 -208 45 0 45 0 0 80 c0 63 3
80 14 80 20 0 40 -22 75 -84 41 -71 51 -78 106 -74 l46 3 -51 72 c-27 39 -50
73 -50 76 0 3 15 20 34 39 40 40 52 88 37 146 -18 67 -52 84 -179 89 -59 3
-110 2 -114 -3z m194 -91 c22 -20 23 -61 1 -85 -11 -13 -30 -18 -65 -18 l-48
0 0 60 0 60 47 0 c29 0 53 -6 65 -17z"/>
<path d="M1660 2381 c0 -159 1 -170 23 -202 61 -91 231 -89 287 3 18 30 20 50
20 201 l0 168 -42 -3 -43 -3 -3 -155 c-2 -142 -4 -156 -24 -177 -29 -31 -77
-31 -107 1 -21 23 -23 32 -22 155 2 172 -1 181 -50 181 l-39 0 0 -169z"/>
<path d="M2100 2335 l0 -215 40 0 c37 0 39 2 46 36 4 20 5 71 2 113 -3 42 -2
91 1 109 6 31 9 27 95 -113 l89 -145 53 0 54 0 0 215 0 215 -45 0 -44 0 -3
-152 -3 -151 -94 151 -94 152 -49 0 -48 0 0 -215z"/>
<path d="M2865 2543 c-20 -5 -69 -37 -93 -60 -44 -42 -63 -148 -41 -226 36
-132 231 -194 322 -103 16 16 17 16 17 -8 0 -23 4 -26 35 -26 l35 0 0 115 0
115 -100 0 -100 0 0 -35 0 -35 60 0 c33 0 60 -4 60 -10 0 -5 -13 -24 -28 -41
-23 -26 -38 -32 -78 -36 -88 -7 -144 48 -144 141 0 65 27 110 77 131 49 21 94
12 136 -25 l33 -29 32 21 c18 11 32 23 32 27 0 15 -56 60 -92 75 -36 15 -120
19 -163 9z"/>
<path d="M3190 2546 c0 -3 32 -56 70 -117 l70 -112 0 -99 0 -98 45 0 45 0 0
104 0 105 61 96 c81 129 80 125 26 125 l-45 0 -42 -70 c-23 -38 -45 -70 -49
-70 -3 0 -24 30 -46 68 -40 66 -40 67 -87 70 -27 2 -48 1 -48 -2z"/>
<path d="M3636 2518 c-3 -18 -10 -96 -16 -173 -6 -77 -13 -159 -16 -182 l-5
-43 44 0 43 0 12 103 c7 56 12 123 12 148 0 25 3 49 7 52 3 4 29 -62 57 -145
50 -150 52 -153 81 -156 l30 -3 50 148 c53 158 65 184 65 138 0 -17 5 -87 11
-157 l12 -128 43 0 43 0 -6 83 c-3 45 -11 141 -17 212 l-11 130 -64 0 -64 0
-45 -135 c-25 -74 -48 -128 -50 -120 -3 8 -24 69 -47 135 l-41 120 -62 3 -61
3 -5 -33z"/>
<path d="M762 1997 c-13 -15 -4 -31 21 -40 9 -3 17 -11 17 -17 0 -10 -11 -13
-45 -11 -19 1 -19 1 -2 -9 9 -6 26 -8 37 -5 26 8 26 45 0 52 -29 8 -24 31 8
36 l27 4 -26 2 c-15 0 -31 -5 -37 -12z"/>
<path d="M959 2001 c10 -6 12 -19 7 -45 -9 -48 1 -46 14 3 6 23 18 42 28 44 9
3 -1 5 -23 6 -26 0 -35 -2 -26 -8z"/>
<path d="M1140 1969 c-6 -23 -9 -44 -5 -47 3 -3 8 4 12 16 7 27 23 29 30 2 3
-11 9 -20 14 -20 5 0 7 11 3 25 -4 15 -2 25 5 25 6 0 11 9 11 20 0 15 -7 20
-30 20 -26 0 -30 -5 -40 -41z m53 16 c1 -5 -6 -11 -15 -13 -11 -2 -18 3 -18
13 0 17 30 18 33 0z"/>
<path d="M1352 1998 c-20 -25 -24 -64 -8 -77 37 -31 85 12 74 66 -4 22 -50 30
-66 11z m56 -31 c3 -21 -2 -29 -20 -36 -29 -11 -38 -6 -38 23 0 49 53 62 58
13z"/>
<path d="M1567 2003 c-2 -5 -7 -26 -11 -48 -5 -29 -4 -36 3 -25 6 8 11 23 11
33 0 29 15 19 29 -19 7 -20 17 -32 21 -27 12 12 30 94 19 87 -5 -3 -9 -14 -9
-24 0 -32 -20 -33 -31 -1 -11 30 -23 39 -32 24z"/>
<path d="M1786 1994 c-21 -20 -21 -70 0 -78 26 -10 28 -7 10 13 -13 15 -14 24
-6 46 8 22 15 26 35 23 14 -3 25 -1 25 3 0 15 -48 10 -64 -7z"/>
<path d="M1991 1973 c-14 -50 -14 -60 2 -60 9 0 12 9 9 24 -3 19 0 23 19 24
17 1 19 3 7 6 -28 7 -21 31 10 36 25 4 25 4 -5 6 -29 1 -33 -3 -42 -36z"/>
<path d="M2183 1965 c-10 -43 -1 -66 10 -25 7 28 23 25 36 -7 l11 -28 -4 28
c-2 15 1 30 5 33 5 3 9 14 9 25 0 14 -7 19 -28 19 -26 0 -30 -5 -39 -45z m57
20 c0 -8 -9 -15 -20 -15 -11 0 -20 7 -20 15 0 8 9 15 20 15 11 0 20 -7 20 -15z"/>
<path d="M2520 1967 c0 -56 19 -63 43 -14 l16 32 0 -32 c1 -47 25 -42 44 9 9
23 15 44 12 46 -3 3 -10 -9 -16 -26 -14 -41 -29 -41 -29 -1 0 35 -15 31 -32
-9 l-12 -27 -4 25 c-7 47 -22 45 -22 -3z"/>
<path d="M2767 1990 c-4 -14 -6 -36 -6 -50 1 -22 2 -20 10 8 6 19 9 41 7 50
-3 12 -6 10 -11 -8z"/>
<path d="M2923 2003 c14 -4 16 -12 12 -46 -4 -31 -3 -37 4 -22 5 11 10 30 10
42 1 14 9 23 24 26 12 2 2 4 -23 4 -25 1 -37 -1 -27 -4z"/>
<path d="M3110 1996 c0 -7 -2 -29 -5 -47 -5 -29 -4 -30 4 -11 7 14 19 22 36
22 19 0 25 -5 26 -22 1 -22 1 -22 9 2 4 14 8 36 8 50 1 25 1 25 -8 3 -13 -31
-65 -33 -57 -3 3 11 1 20 -4 20 -5 0 -9 -6 -9 -14z"/>
<path d="M3472 1971 c-24 -43 -29 -62 -10 -43 16 16 45 15 51 0 8 -25 14 -3 9
40 -5 53 -22 54 -50 3z m38 -7 c0 -8 -7 -14 -15 -14 -17 0 -18 2 -9 24 7 18
24 12 24 -10z"/>
<path d="M3676 2002 c-2 -4 -7 -25 -10 -47 -6 -35 -5 -37 5 -17 16 29 27 28
39 -3 12 -32 22 -32 14 0 -3 14 -1 32 6 40 6 8 9 19 5 25 -7 12 -52 14 -59 2z
m45 -17 c0 -5 -9 -11 -21 -13 -20 -3 -27 8 -13 22 10 9 34 3 34 -9z"/>
<path d="M3876 1998 c-20 -64 -4 -99 34 -82 23 10 58 94 39 94 -4 0 -11 -16
-15 -35 -7 -40 -40 -66 -50 -40 -4 9 -4 29 0 45 5 29 -1 43 -8 18z"/>
<path d="M4090 2003 c0 -5 -4 -25 -9 -45 -5 -22 -5 -38 0 -38 5 0 9 8 9 18 0
9 4 23 9 31 7 11 13 5 25 -24 19 -46 31 -38 39 25 5 42 5 43 -5 13 -13 -41
-23 -42 -37 -3 -9 27 -31 42 -31 23z"/>
<path d="M1833 1953 c4 -3 2 -12 -4 -20 -9 -10 -8 -13 5 -13 9 0 16 8 16 20 0
11 -5 20 -12 20 -6 0 -8 -3 -5 -7z"/>
<path d="M950 1880 l-85 -6 65 -2 c36 -1 102 -5 148 -9 72 -5 82 -4 82 11 0
18 -38 19 -210 6z"/>
<path d="M3710 1874 c0 -15 9 -16 61 -10 34 3 101 7 148 8 l86 1 -85 8 c-154
13 -210 11 -210 -7z"/>
<path d="M1671 1736 c4 -4 119 -24 274 -47 39 -6 79 -14 90 -19 17 -6 175
-255 175 -274 0 -3 -21 -6 -47 -6 -47 0 -304 -23 -393 -36 l-45 -6 -22 80
c-26 93 -52 151 -74 165 -9 6 -36 7 -63 3 -71 -11 -81 -33 -80 -175 2 -157 40
-333 87 -402 22 -32 26 -34 77 -32 82 4 85 9 86 176 l1 141 94 12 c52 6 163
17 247 24 131 11 155 11 166 -1 7 -8 57 -90 111 -182 85 -146 99 -165 109
-150 7 10 54 89 106 176 51 86 97 160 102 163 11 7 236 -10 402 -30 l99 -12
-2 -129 c-2 -163 4 -176 78 -189 52 -9 55 -8 77 17 50 58 94 259 94 428 0 140
-8 155 -86 165 -47 6 -52 4 -72 -21 -23 -29 -72 -171 -72 -207 0 -19 -4 -20
-49 -14 -91 12 -356 36 -398 36 -24 0 -43 3 -43 6 0 9 151 263 159 268 4 3 92
19 196 36 105 17 192 33 194 36 2 2 -97 4 -220 4 l-225 0 -99 -170 -100 -169
-150 2 -149 2 -66 115 c-37 63 -80 138 -97 165 l-29 50 -224 3 c-123 1 -222 0
-219 -2z m1580 -459 c-6 -15 -16 -27 -22 -27 -14 0 -6 72 13 116 l13 29 3 -46
c1 -25 -2 -57 -7 -72z m-1614 41 c-2 -13 -4 -3 -4 22 0 25 2 35 4 23 2 -13 2
-33 0 -45z m36 48 c13 -33 18 -104 9 -110 -16 -9 -23 8 -29 69 -4 35 -2 55 5
55 5 0 12 -6 15 -14z m886 -38 c-11 -22 -99 -170 -104 -176 -1 -2 -17 23 -35
55 -18 32 -44 77 -57 101 l-25 42 116 0 117 0 -12 -22z m713 -60 c-8 -8 -9 -4
-5 13 4 13 8 18 11 10 2 -7 -1 -18 -6 -23z"/>
<path d="M1430 1520 c-29 -4 -37 -11 -46 -40 -9 -27 -18 -36 -41 -41 -50 -10
-53 -16 -53 -94 l0 -73 -37 -9 c-28 -6 -38 -14 -38 -28 0 -20 6 -21 55 -14 22
4 26 -1 43 -66 25 -96 40 -117 80 -113 33 3 35 8 21 58 -3 14 7 0 22 -30 28
-53 30 -55 68 -53 22 2 41 5 44 7 2 3 -5 29 -16 58 -33 88 -53 206 -57 327 -2
62 -5 114 -7 115 -2 1 -19 -1 -38 -4z m-47 -265 c4 -34 3 -42 -3 -25 -8 25
-13 87 -6 79 2 -2 6 -26 9 -54z m21 -100 c5 -22 4 -26 -4 -15 -5 8 -10 24 -10
34 0 26 6 18 14 -19z"/>
<path d="M3438 1469 c8 -85 -28 -309 -65 -401 -19 -47 -9 -60 42 -56 23 2 35
12 52 43 19 33 23 36 21 15 -3 -21 2 -25 29 -28 40 -4 61 25 84 117 15 60 19
66 40 62 48 -7 54 -6 54 14 0 14 -10 22 -37 28 l-38 9 0 72 c0 78 -9 96 -49
96 -26 0 -26 -1 -29 -88 -1 -48 -9 -112 -17 -142 -8 -30 -12 -39 -9 -20 25
167 22 303 -8 322 -7 4 -27 8 -44 8 l-31 0 5 -51z m62 -356 c-11 -17 -11 -17
-6 0 3 10 6 24 7 30 0 9 2 9 5 0 3 -7 0 -20 -6 -30z"/>
</g>
</svg>
