<?xml version="1.0" standalone="no"?>
<!DOCTYPE svg PUBLIC "-//W3C//DTD SVG 20010904//EN"
 "http://www.w3.org/TR/2001/REC-SVG-20010904/DTD/svg10.dtd">
<svg version="1.0" xmlns="http://www.w3.org/2000/svg"
 width="510.000000pt" height="489.000000pt" viewBox="0 0 510.000000 489.000000"
 preserveAspectRatio="xMidYMid meet">

<g transform="translate(0.000000,489.000000) scale(0.100000,-0.100000)"
fill="#000000" stroke="none">
<path d="M260 2755 l0 -495 105 0 105 0 0 390 0 390 120 0 120 0 0 105 0 105
-225 0 -225 0 0 -495z"/>
<path d="M1244 1844 c3 -9 6 -18 6 -20 0 -2 4 -4 9 -4 5 0 7 9 4 20 -3 11 -10
20 -15 20 -6 0 -7 -7 -4 -16z"/>
<path d="M1274 1844 c3 -9 6 -18 6 -20 0 -2 4 -4 9 -4 5 0 7 9 4 20 -3 11 -10
20 -15 20 -6 0 -7 -7 -4 -16z"/>
<path d="M1330 1850 c0 -5 9 -10 20 -10 18 0 20 -7 20 -60 0 -33 4 -60 10 -60
6 0 10 27 10 60 0 57 1 60 25 60 14 0 25 5 25 10 0 6 -25 10 -55 10 -30 0 -55
-4 -55 -10z"/>
<path d="M1470 1849 c0 -5 5 -7 10 -4 6 3 10 8 10 11 0 2 -4 4 -10 4 -5 0 -10
-5 -10 -11z"/>
<path d="M1860 1850 c0 -5 9 -10 20 -10 18 0 20 -7 20 -60 0 -33 4 -60 10 -60
6 0 10 27 10 60 0 57 1 60 25 60 14 0 25 5 25 10 0 6 -25 10 -55 10 -30 0 -55
-4 -55 -10z"/>
<path d="M2440 1835 c0 -28 -3 -30 -29 -13 -26 16 -71 -13 -71 -47 0 -45 58
-73 88 -43 9 9 12 9 12 0 0 -7 5 -12 10 -12 6 0 10 30 10 70 0 40 -4 70 -10
70 -5 0 -10 -11 -10 -25z m-9 -46 c9 -18 8 -25 -8 -41 -22 -22 -49 -16 -58 13
-14 43 44 67 66 28z"/>
<path d="M2720 1790 l0 -70 34 0 c19 0 41 3 50 6 18 7 22 49 6 59 -6 4 -5 13
2 25 18 28 -6 50 -53 50 l-39 0 0 -70z m75 30 c0 -9 -11 -16 -27 -18 -23 -3
-28 1 -28 18 0 17 5 21 28 18 16 -2 27 -9 27 -18z m3 -56 c2 -15 -4 -23 -19
-27 -28 -7 -39 -1 -39 22 0 24 10 32 35 29 12 -2 21 -12 23 -24z"/>
<path d="M2855 1850 c3 -5 8 -10 11 -10 2 0 4 5 4 10 0 6 -5 10 -11 10 -5 0
-7 -4 -4 -10z"/>
<path d="M3110 1839 c-14 -26 1 -46 44 -57 34 -9 40 -29 14 -45 -13 -9 -22 -7
-37 7 -18 16 -21 17 -21 4 0 -31 73 -39 89 -11 13 25 -3 50 -39 58 -36 8 -46
21 -30 40 16 19 25 19 45 -1 20 -20 33 -11 15 11 -19 22 -67 19 -80 -6z"/>
<path d="M3455 1850 c3 -5 8 -10 11 -10 2 0 4 5 4 10 0 6 -5 10 -11 10 -5 0
-7 -4 -4 -10z"/>
<path d="M3500 1790 c0 -40 4 -70 10 -70 6 0 10 30 10 70 0 40 -4 70 -10 70
-6 0 -10 -30 -10 -70z"/>
<path d="M3817 1854 c-4 -4 -7 -14 -7 -23 0 -11 3 -12 11 -4 6 6 10 16 7 23
-2 6 -7 8 -11 4z"/>
<path d="M3847 1854 c-4 -4 -7 -14 -7 -23 0 -11 3 -12 11 -4 6 6 10 16 7 23
-2 6 -7 8 -11 4z"/>
<path d="M1470 1776 c0 -31 5 -56 10 -56 6 0 10 22 10 49 0 28 -4 53 -10 56
-6 4 -10 -15 -10 -49z"/>
<path d="M1520 1775 c0 -30 5 -55 10 -55 6 0 10 15 10 33 0 37 15 57 41 57 23
0 33 -16 33 -54 1 -16 7 -31 14 -34 21 -7 15 65 -8 88 -23 23 -33 24 -61 10
-13 -7 -19 -7 -19 0 0 5 -4 10 -10 10 -5 0 -10 -25 -10 -55z"/>
<path d="M1666 1808 c3 -13 13 -36 21 -51 15 -30 10 -47 -13 -47 -8 0 -14 -5
-14 -11 0 -29 39 3 67 56 37 68 42 91 13 56 -11 -13 -20 -29 -20 -37 0 -27
-19 -14 -31 21 -14 38 -35 49 -23 13z"/>
<path d="M1977 1824 c-10 -11 -9 -104 2 -104 6 0 11 17 13 37 2 28 9 41 28 51
l25 14 -27 -6 c-15 -3 -28 -1 -30 5 -2 5 -7 7 -11 3z"/>
<path d="M2077 1812 c-21 -23 -22 -65 -3 -81 19 -16 68 -10 74 7 3 11 0 12
-17 2 -17 -9 -26 -9 -37 1 -25 20 -15 29 31 29 38 0 43 3 38 18 -14 42 -59 54
-86 24z m61 -19 c2 -9 -7 -13 -27 -13 -30 0 -39 9 -24 24 11 10 46 3 51 -11z"/>
<path d="M2197 1824 c-4 -4 -7 -29 -7 -56 0 -35 4 -48 14 -48 10 0 16 14 18
43 3 39 5 42 33 42 28 0 30 -3 33 -42 4 -53 22 -57 22 -5 0 51 -29 80 -64 64
-15 -6 -27 -7 -33 -1 -5 5 -12 6 -16 3z"/>
<path d="M2502 1821 c-21 -13 -10 -44 18 -51 31 -7 40 -40 12 -40 -11 0 -22 6
-25 13 -2 6 -8 9 -12 4 -15 -13 11 -29 41 -25 21 2 30 9 32 26 3 18 -2 23 -27
28 -17 4 -31 13 -31 20 0 17 37 19 43 2 2 -7 8 -9 13 -5 5 5 1 15 -10 23 -23
16 -35 17 -54 5z"/>
<path d="M2857 1823 c-11 -10 -8 -103 3 -103 11 0 13 15 11 69 -1 37 -4 45
-14 34z"/>
<path d="M2927 1818 c-12 -9 -16 -23 -13 -48 2 -19 0 -43 -5 -52 -18 -33 0
-49 50 -46 36 2 47 7 49 22 5 23 -14 36 -50 36 -16 0 -28 5 -28 10 0 6 11 10
24 10 28 0 43 16 48 50 2 21 -1 25 -27 28 -16 2 -38 -3 -48 -10z m53 -28 c0
-15 -7 -20 -25 -20 -18 0 -25 5 -25 20 0 15 7 20 25 20 18 0 25 -5 25 -20z m5
-90 c0 -18 -43 -26 -57 -12 -16 16 2 33 30 30 16 -2 27 -9 27 -18z"/>
<path d="M3236 1815 c-9 -26 -7 -83 4 -90 6 -4 10 6 10 22 0 38 21 66 46 62
15 -3 20 -14 22 -47 4 -54 20 -54 24 1 3 37 6 42 28 42 22 0 25 -5 28 -42 4
-57 22 -55 22 2 0 39 -4 47 -25 57 -20 9 -28 8 -43 -5 -17 -15 -19 -15 -35 1
-15 14 -20 15 -39 3 -16 -10 -22 -10 -28 -1 -5 8 -9 7 -14 -5z"/>
<path d="M3457 1823 c-11 -10 -8 -103 3 -103 6 0 10 25 10 55 0 56 -1 60 -13
48z"/>
<path d="M3570 1810 c-24 -24 -26 -53 -4 -74 18 -18 69 -21 79 -5 11 16 -3 23
-19 10 -11 -9 -20 -10 -35 -1 -34 18 -24 30 24 30 51 0 60 18 23 44 -30 21
-44 20 -68 -4z m68 -17 c2 -9 -8 -13 -33 -13 -33 0 -36 2 -25 15 15 18 51 16
58 -2z"/>
<path d="M3700 1815 c-18 -21 -5 -45 24 -45 29 0 43 -17 27 -33 -9 -9 -16 -8
-31 1 -27 16 -35 15 -20 -3 15 -18 51 -20 68 -3 19 19 14 28 -23 44 -19 8 -35
19 -35 24 0 14 34 12 48 -2 9 -9 12 -8 12 4 0 28 -50 38 -70 13z"/>
<path d="M2610 1719 c0 -11 5 -17 10 -14 6 3 10 13 10 21 0 8 -4 14 -10 14 -5
0 -10 -9 -10 -21z"/>
</g>
</svg>
