<svg xmlns="http://www.w3.org/2000/svg" viewBox="0 0 24 24" width="24" height="24" aria-hidden="true">
  <path fill-rule="evenodd" clip-rule="evenodd" d="M12 .5C5.73.5.5 5.73.5 12c0 5.08 3.29 9.38 7.86 10.89.57.1.78-.25.78-.55v-1.96c-3.2.7-3.87-1.54-3.87-1.54-.52-1.32-1.27-1.67-1.27-1.67-1.04-.71.08-.7.08-.7 1.15.08 1.75 1.18 1.75 1.18 1.02 1.75 2.67 1.24 3.32.95.1-.74.4-1.24.73-1.52-2.55-.29-5.23-1.28-5.23-5.71 0-1.26.44-2.29 1.17-3.1-.12-.29-.51-1.47.11-3.07 0 0 .96-.31 3.15 1.18.92-.25 1.9-.37 2.88-.38.98.01 1.96.13 2.89.38 2.19-1.49 3.15-1.18 3.15-1.18.62 1.6.23 2.78.11 3.07.73.81 1.17 1.84 1.17 3.1 0 4.44-2.69 5.42-5.25 5.7.41.36.78 1.08.78 2.18v3.23c0 .3.2.66.79.55C20.71 21.38 24 17.08 24 12c0-6.27-5.23-11.5-12-11.5z" fill="#111"/>
</svg>

